<svg width="16" height="19" viewBox="0 0 16 19" fill="none" xmlns="http://www.w3.org/2000/svg">
<path fill-rule="evenodd" clip-rule="evenodd" d="M7.72061 14.5264L2.77782 17.2342C2.38318 17.4393 1.89699 17.2941 1.67942 16.9062V16.9062C1.61648 16.7861 1.58252 16.6528 1.58026 16.5172V4.51873C1.58026 2.2304 3.14395 1.31506 5.39414 1.31506H10.6802C12.8617 1.31506 14.4941 2.16937 14.4941 4.36617V16.5172C14.4941 16.7337 14.4081 16.9413 14.255 17.0943C14.102 17.2474 13.8944 17.3334 13.6779 17.3334C13.5398 17.3312 13.4041 17.2973 13.2813 17.2342L8.30795 14.5264C8.12469 14.4273 7.90388 14.4273 7.72061 14.5264Z" stroke="url(#paint0_linear_4538_4910)" stroke-width="1.5" stroke-linecap="round" stroke-linejoin="round"/>
<path d="M4.97461 6.76896H11.0539" stroke="url(#paint1_linear_4538_4910)" stroke-width="1.5" stroke-linecap="round" stroke-linejoin="round"/>
<defs>
<linearGradient id="paint0_linear_4538_4910" x1="15.0106" y1="9.38829" x2="-23.8858" y2="9.38829" gradientUnits="userSpaceOnUse">
<stop stop-color="#FEC90F"/>
<stop offset="1" stop-color="white"/>
</linearGradient>
<linearGradient id="paint1_linear_4538_4910" x1="11.2971" y1="6.77201" x2="-7.01383" y2="6.77201" gradientUnits="userSpaceOnUse">
<stop stop-color="#FEC90F"/>
<stop offset="1" stop-color="white"/>
</linearGradient>
</defs>
</svg>
