<svg width="25" height="24" viewBox="0 0 25 24" fill="none" xmlns="http://www.w3.org/2000/svg">
<path fill-rule="evenodd" clip-rule="evenodd" d="M3.5 5.5C3.5 5.36739 3.55268 5.24021 3.64645 5.14645C3.74021 5.05268 3.86739 5 4 5H21C21.1326 5 21.2598 5.05268 21.3536 5.14645C21.4473 5.24021 21.5 5.36739 21.5 5.5C21.5 5.63261 21.4473 5.75979 21.3536 5.85355C21.2598 5.94732 21.1326 6 21 6H4C3.86739 6 3.74021 5.94732 3.64645 5.85355C3.55268 5.75979 3.5 5.63261 3.5 5.5ZM3.5 12C3.5 11.8674 3.55268 11.7402 3.64645 11.6464C3.74021 11.5527 3.86739 11.5 4 11.5H21C21.1326 11.5 21.2598 11.5527 21.3536 11.6464C21.4473 11.7402 21.5 11.8674 21.5 12C21.5 12.1326 21.4473 12.2598 21.3536 12.3536C21.2598 12.4473 21.1326 12.5 21 12.5H4C3.86739 12.5 3.74021 12.4473 3.64645 12.3536C3.55268 12.2598 3.5 12.1326 3.5 12ZM3.5 18.5C3.5 18.3674 3.55268 18.2402 3.64645 18.1464C3.74021 18.0527 3.86739 18 4 18H21C21.1326 18 21.2598 18.0527 21.3536 18.1464C21.4473 18.2402 21.5 18.3674 21.5 18.5C21.5 18.6326 21.4473 18.7598 21.3536 18.8536C21.2598 18.9473 21.1326 19 21 19H4C3.86739 19 3.74021 18.9473 3.64645 18.8536C3.55268 18.7598 3.5 18.6326 3.5 18.5Z" fill="#676767"/>
</svg>
