<svg width="21" height="23" viewBox="0 0 21 23" fill="none" xmlns="http://www.w3.org/2000/svg">
<path fill-rule="evenodd" clip-rule="evenodd" d="M0.9375 9.60748C0.9375 4.43263 5.26187 0.25 10.4926 0.25C15.7381 0.25 20.0625 4.43263 20.0625 9.60748C20.0625 12.2152 19.1141 14.6361 17.5532 16.688C15.8312 18.9515 13.7087 20.9235 11.3196 22.4715C10.7728 22.8292 10.2794 22.8562 9.67926 22.4715C7.27658 20.9235 5.1541 18.9515 3.44681 16.688C1.88473 14.6361 0.9375 12.2152 0.9375 9.60748ZM7.34351 9.89884C7.34351 11.6324 8.75811 12.9959 10.4926 12.9959C12.2283 12.9959 13.6565 11.6324 13.6565 9.89884C13.6565 8.17877 12.2283 6.74894 10.4926 6.74894C8.75811 6.74894 7.34351 8.17877 7.34351 9.89884Z" fill="url(#paint0_linear_4453_9484)"/>
<defs>
<linearGradient id="paint0_linear_4453_9484" x1="20.8275" y1="11.59" x2="-36.777" y2="11.59" gradientUnits="userSpaceOnUse">
<stop stop-color="#E61104"/>
<stop offset="0.71875" stop-color="#F8BCB8"/>
<stop offset="1" stop-color="white"/>
</linearGradient>
</defs>
</svg>
