<svg width="24" height="24" viewBox="0 0 24 24" fill="none" xmlns="http://www.w3.org/2000/svg">
<path d="M3.71373 23.9783C2.72879 23.9783 1.78419 23.613 1.08773 22.9628C0.391266 22.3126 0 21.4307 0 20.5111V9H18.6754V11.7781L19.1118 11.7044C19.3724 11.6617 19.6364 11.6399 19.901 11.6394C22.1617 11.6394 24 13.2387 24 15.202C24 17.1653 22.1431 18.7645 19.901 18.7645C19.6363 18.7625 19.3723 18.7393 19.1118 18.6952L18.6754 18.6215V20.5328C18.6754 21.4524 18.2842 22.3343 17.5877 22.9845C16.8912 23.6347 15.9466 24 14.9617 24L3.71373 23.9783ZM0.905223 20.5111C0.912553 21.2024 1.21153 21.8631 1.73731 22.35C2.26308 22.8368 2.97324 23.1104 3.71373 23.1115H14.9849C15.7214 23.1048 16.4256 22.8286 16.9464 22.3424C17.4672 21.8562 17.763 21.1987 17.7702 20.5111V9.82346H0.905223V20.5111ZM19.901 12.4629C19.587 12.4635 19.2746 12.5044 18.9725 12.5842L18.6986 12.6536V17.746L18.9725 17.8197C19.2751 17.8975 19.5872 17.9383 19.901 17.9411C21.6743 17.9411 23.118 16.7102 23.118 15.202C23.118 13.6937 21.6743 12.4629 19.901 12.4629Z" fill="black"/>
<path d="M6.16068 6.99974C6.06848 7.00069 5.97731 6.9849 5.89463 6.95366C5.81194 6.92242 5.7401 6.87662 5.68499 6.82001C5.58774 6.7233 5.54448 6.60101 5.56469 6.47993C5.5849 6.35884 5.66693 6.24883 5.79281 6.17396C6.08178 6.03622 6.32538 5.8493 6.50469 5.62773C6.68399 5.40616 6.79416 5.15591 6.82664 4.89643C6.8089 4.5894 6.65446 4.29627 6.38901 4.06579V4.03665L6.34461 4.0075C6.12922 3.87216 5.92972 3.72262 5.74842 3.56061C5.27759 3.1599 5.01178 2.64234 5 2.10335C5.02232 1.70051 5.17048 1.30765 5.43203 0.957736C5.69358 0.607818 6.0609 0.31105 6.50317 0.0923332C6.61024 0.0329617 6.73885 0.000694735 6.87104 4.0875e-05C6.96323 -0.000914046 7.0544 0.014875 7.13709 0.0461157C7.21977 0.0773565 7.29161 0.123159 7.34672 0.179769C7.39227 0.230014 7.42433 0.286694 7.44102 0.346511C7.45771 0.406329 7.45871 0.468089 7.44396 0.528205C7.4292 0.588321 7.39899 0.645591 7.35508 0.696684C7.31116 0.747776 7.25443 0.791673 7.18816 0.825821C6.89854 0.962994 6.65442 1.14977 6.47503 1.37145C6.29564 1.59313 6.18586 1.84367 6.15434 2.10335C6.18355 2.4015 6.34205 2.68361 6.60465 2.90484V2.93884L6.64905 2.96799C6.85392 3.09514 7.0429 3.23662 7.21353 3.39059C7.24796 3.41485 7.27784 3.44264 7.30233 3.47317C7.73411 3.86784 7.97986 4.36233 8 4.877C7.97904 5.27781 7.83766 5.66952 7.58685 6.02168C7.33605 6.37384 6.98257 6.67695 6.55391 6.90745C6.43986 6.97081 6.3015 7.00328 6.16068 6.99974Z" fill="black"/>
<path d="M11.7657 6.99996C11.7049 7.00091 11.6447 6.98512 11.5902 6.95388C11.5356 6.92264 11.4882 6.87684 11.4519 6.82023C11.3877 6.72351 11.3592 6.60122 11.3725 6.48013C11.3859 6.35905 11.44 6.24902 11.523 6.17415C11.7136 6.03641 11.8743 5.84949 11.9926 5.62791C12.1109 5.40634 12.1836 5.15607 12.205 4.89658C12.1933 4.58954 12.0914 4.2964 11.9163 4.06592V4.03677L11.887 4.00763C11.7449 3.87228 11.6133 3.72274 11.4937 3.56072C11.1831 3.16 11.0078 2.64242 11 2.10342C11.0147 1.70057 11.1125 1.3077 11.285 0.957766C11.4575 0.607837 11.6999 0.311059 11.9916 0.0923361C12.0623 0.0329628 12.1471 0.000694757 12.2343 4.08763e-05C12.2951 -0.000914075 12.3553 0.0148754 12.4098 0.0461172C12.4644 0.0773589 12.5118 0.123163 12.5481 0.179775C12.6123 0.27649 12.6408 0.398778 12.6275 0.519866C12.6141 0.640954 12.56 0.750977 12.477 0.825847C12.2859 0.963025 12.1249 1.1498 12.0065 1.37149C11.8882 1.59318 11.8158 1.84372 11.795 2.10342C11.8049 2.3969 11.8975 2.67849 12.0586 2.90493L12.0795 2.93894L12.1088 2.96808C12.2439 3.09524 12.3686 3.23672 12.4812 3.3907C12.5039 3.41496 12.5236 3.44275 12.5397 3.47328C12.8246 3.86796 12.9867 4.36247 13 4.87715C12.9793 5.27841 12.8791 5.6687 12.7071 6.01755C12.5351 6.3664 12.2959 6.66438 12.0084 6.88823C11.9398 6.95457 11.8548 6.99372 11.7657 6.99996Z" fill="black"/>
</svg>
