<svg width="23" height="20" viewBox="0 0 23 20" fill="none" xmlns="http://www.w3.org/2000/svg">
<path fill-rule="evenodd" clip-rule="evenodd" d="M22.5106 8.30617C22.3583 8.45866 22.1516 8.5458 21.934 8.5458C21.1289 8.5458 20.4761 9.19936 20.4761 9.99451C20.4761 10.7951 21.1213 11.4454 21.9188 11.4541C22.3681 11.4585 22.75 11.7722 22.75 12.222V15.016C22.75 17.3677 20.846 19.2749 18.4959 19.2749H14.949C14.5823 19.2749 14.2853 18.9776 14.2853 18.6105V16.2577C14.2853 15.8002 13.9263 15.4408 13.4693 15.4408C13.0232 15.4408 12.6533 15.8002 12.6533 16.2577V18.6105C12.6533 18.9776 12.3563 19.2749 11.9907 19.2749H4.50411C2.16489 19.2749 0.25 17.3687 0.25 15.016V12.222C0.25 11.7722 0.631891 11.4585 1.08124 11.4541C1.87984 11.4454 2.52394 10.7951 2.52394 9.99451C2.52394 9.22114 1.89289 8.63294 1.06601 8.63294C0.848404 8.63294 0.641683 8.5458 0.489362 8.39331C0.337041 8.24081 0.25 8.03386 0.25 7.81601V4.99484C0.25 2.64642 2.16925 0.724976 4.51499 0.724976H11.9907C12.3563 0.724976 12.6533 1.02234 12.6533 1.38942V4.1779C12.6533 4.6245 13.0232 4.99484 13.4693 4.99484C13.9263 4.99484 14.2853 4.6245 14.2853 4.1779V1.38942C14.2853 1.02234 14.5823 0.724976 14.949 0.724976H18.4959C20.846 0.724976 22.75 2.63117 22.75 4.98395V7.72887C22.75 7.94672 22.663 8.15367 22.5106 8.30617ZM13.4693 13.3276C13.9263 13.3276 14.2853 12.9573 14.2853 12.5107V8.15367C14.2853 7.70708 13.9263 7.33673 13.4693 7.33673C13.0232 7.33673 12.6533 7.70708 12.6533 8.15367V12.5107C12.6533 12.9573 13.0232 13.3276 13.4693 13.3276Z" fill="url(#paint0_linear_4453_9491)"/>
<defs>
<linearGradient id="paint0_linear_4453_9491" x1="23.65" y1="10.0742" x2="-44.12" y2="10.0742" gradientUnits="userSpaceOnUse">
<stop stop-color="#2BA600"/>
<stop offset="1" stop-color="white"/>
</linearGradient>
</defs>
</svg>
